<?xml version="1.0" encoding="UTF-8" ?>
<svg version="1.1" width="16" height="16" xmlns="http://www.w3.org/2000/svg" shape-rendering="crispEdges">
<rect x="1" y="0" width="1" height="1" fill="#F3F3ED" />
<rect x="2" y="0" width="12" height="1" fill="#F7F7F7" />
<rect x="14" y="0" width="1" height="1" fill="#F0F0EB" />
<rect x="0" y="1" width="1" height="1" fill="#F3F3ED" />
<rect x="1" y="1" width="1" height="1" fill="#F7E1BF" />
<rect x="2" y="1" width="1" height="1" fill="#F7C272" />
<rect x="3" y="1" width="1" height="1" fill="#F7BF6A" />
<rect x="4" y="1" width="1" height="1" fill="#F7B95A" />
<rect x="5" y="1" width="1" height="1" fill="#F7B450" />
<rect x="6" y="1" width="1" height="1" fill="#F7B34D" />
<rect x="7" y="1" width="1" height="1" fill="#F7B450" />
<rect x="8" y="1" width="1" height="1" fill="#F7B24B" />
<rect x="9" y="1" width="1" height="1" fill="#F7B045" />
<rect x="10" y="1" width="1" height="1" fill="#F7AE3F" />
<rect x="11" y="1" width="1" height="1" fill="#F7AC39" />
<rect x="12" y="1" width="1" height="1" fill="#F7A830" />
<rect x="13" y="1" width="1" height="1" fill="#ED9B21" />
<rect x="14" y="1" width="1" height="1" fill="#EACDA3" />
<rect x="15" y="1" width="1" height="1" fill="#EBEBE5" />
<rect x="0" y="2" width="1" height="12" fill="#F7F7F7" />
<rect x="1" y="2" width="1" height="1" fill="#F7C477" />
<rect x="2" y="2" width="1" height="1" fill="#F7D29C" />
<rect x="3" y="2" width="1" height="1" fill="#F7CE90" />
<rect x="4" y="2" width="1" height="1" fill="#F7C67C" />
<rect x="5" y="2" width="1" height="1" fill="#F7C272" />
<rect x="6" y="2" width="1" height="1" fill="#F7BF6C" />
<rect x="7" y="2" width="1" height="1" fill="#F7BD66" />
<rect x="8" y="2" width="1" height="1" fill="#F7BB61" />
<rect x="9" y="2" width="1" height="1" fill="#F7B95C" />
<rect x="10" y="2" width="1" height="1" fill="#F7B754" />
<rect x="11" y="2" width="1" height="1" fill="#F7B24B" />
<rect x="12" y="2" width="1" height="1" fill="#F7AE3F" />
<rect x="13" y="2" width="1" height="1" fill="#F0A22E" />
<rect x="14" y="2" width="1" height="1" fill="#CC8418" />
<rect x="15" y="2" width="1" height="12" fill="#F7F7F7" />
<rect x="1" y="3" width="1" height="1" fill="#F7C06E" />
<rect x="2" y="3" width="1" height="1" fill="#F7CF91" />
<rect x="3" y="3" width="1" height="1" fill="#F7CC88" />
<rect x="4" y="3" width="1" height="1" fill="#F7C477" />
<rect x="5" y="3" width="1" height="1" fill="#F7C06E" />
<rect x="6" y="3" width="1" height="1" fill="#F7BD66" />
<rect x="7" y="3" width="1" height="1" fill="#F7B95D" />
<rect x="8" y="3" width="1" height="1" fill="#F7B756" />
<rect x="9" y="3" width="1" height="1" fill="#F7B44F" />
<rect x="10" y="3" width="1" height="1" fill="#F7B149" />
<rect x="11" y="3" width="1" height="1" fill="#F7B043" />
<rect x="12" y="3" width="1" height="1" fill="#F7AC39" />
<rect x="13" y="3" width="1" height="1" fill="#F0A32F" />
<rect x="14" y="3" width="1" height="1" fill="#CC861D" />
<rect x="1" y="4" width="1" height="1" fill="#F7BB60" />
<rect x="2" y="4" width="1" height="1" fill="#F7C881" />
<rect x="3" y="4" width="1" height="1" fill="#F7C579" />
<rect x="4" y="4" width="1" height="1" fill="#F7E1BF" />
<rect x="5" y="4" width="1" height="3" fill="#F7F7F7" />
<rect x="6" y="4" width="1" height="1" fill="#F7B757" />
<rect x="7" y="4" width="1" height="1" fill="#F7B34D" />
<rect x="8" y="4" width="1" height="1" fill="#F7B043" />
<rect x="9" y="4" width="1" height="1" fill="#F7AC39" />
<rect x="10" y="4" width="1" height="3" fill="#F7F7F7" />
<rect x="11" y="4" width="1" height="1" fill="#F7D7A8" />
<rect x="12" y="4" width="1" height="1" fill="#F7A830" />
<rect x="13" y="4" width="1" height="2" fill="#F1A42E" />
<rect x="14" y="4" width="1" height="2" fill="#CD8922" />
<rect x="1" y="5" width="1" height="1" fill="#F7B552" />
<rect x="2" y="5" width="1" height="1" fill="#F7C272" />
<rect x="3" y="5" width="1" height="1" fill="#F7C16F" />
<rect x="4" y="5" width="1" height="1" fill="#F7F7F7" />
<rect x="6" y="5" width="1" height="2" fill="#F7F7F7" />
<rect x="7" y="5" width="1" height="1" fill="#F7B146" />
<rect x="8" y="5" width="1" height="1" fill="#F7AE3A" />
<rect x="9" y="5" width="1" height="2" fill="#F7F7F7" />
<rect x="11" y="5" width="1" height="1" fill="#F7F7F7" />
<rect x="12" y="5" width="1" height="1" fill="#F7A82B" />
<rect x="1" y="6" width="1" height="1" fill="#F7B450" />
<rect x="2" y="6" width="2" height="1" fill="#F7BD66" />
<rect x="4" y="6" width="1" height="1" fill="#F7BA5E" />
<rect x="7" y="6" width="1" height="1" fill="#F7EFDD" />
<rect x="8" y="6" width="1" height="1" fill="#F7EDDC" />
<rect x="11" y="6" width="1" height="1" fill="#F7AE24" />
<rect x="12" y="6" width="1" height="1" fill="#F7AC28" />
<rect x="13" y="6" width="1" height="1" fill="#F1A92B" />
<rect x="14" y="6" width="1" height="1" fill="#CF8D20" />
<rect x="1" y="7" width="1" height="1" fill="#F7B043" />
<rect x="2" y="7" width="1" height="1" fill="#F7B95C" />
<rect x="3" y="7" width="1" height="1" fill="#F7BA5E" />
<rect x="4" y="7" width="1" height="1" fill="#F7B95A" />
<rect x="5" y="7" width="1" height="1" fill="#F7B754" />
<rect x="6" y="7" width="1" height="2" fill="#F7EEDE" />
<rect x="7" y="7" width="2" height="2" fill="#F7F7F7" />
<rect x="9" y="7" width="1" height="1" fill="#F7EEDB" />
<rect x="10" y="7" width="1" height="1" fill="#F7B828" />
<rect x="11" y="7" width="1" height="1" fill="#F7B823" />
<rect x="12" y="7" width="1" height="1" fill="#F7B726" />
<rect x="13" y="7" width="1" height="1" fill="#F1B028" />
<rect x="14" y="7" width="1" height="1" fill="#D0921E" />
<rect x="1" y="8" width="1" height="1" fill="#F7AE3F" />
<rect x="2" y="8" width="1" height="1" fill="#F7B552" />
<rect x="3" y="8" width="1" height="1" fill="#F7B757" />
<rect x="4" y="8" width="1" height="1" fill="#F7B756" />
<rect x="5" y="8" width="1" height="1" fill="#F7B650" />
<rect x="9" y="8" width="1" height="1" fill="#F7F0DB" />
<rect x="10" y="8" width="1" height="1" fill="#F7C528" />
<rect x="11" y="8" width="1" height="1" fill="#F7C522" />
<rect x="12" y="8" width="1" height="1" fill="#F7C121" />
<rect x="13" y="8" width="1" height="1" fill="#F1B822" />
<rect x="14" y="8" width="1" height="1" fill="#D29819" />
<rect x="1" y="9" width="1" height="1" fill="#F7A932" />
<rect x="2" y="9" width="1" height="1" fill="#F7B14A" />
<rect x="3" y="9" width="1" height="1" fill="#F7B450" />
<rect x="4" y="9" width="1" height="1" fill="#F7B552" />
<rect x="5" y="9" width="2" height="2" fill="#F7F7F7" />
<rect x="7" y="9" width="1" height="1" fill="#F7EFDD" />
<rect x="8" y="9" width="1" height="1" fill="#F7F0DC" />
<rect x="9" y="9" width="2" height="2" fill="#F7F7F7" />
<rect x="11" y="9" width="1" height="1" fill="#F7D222" />
<rect x="12" y="9" width="1" height="1" fill="#F7CE1D" />
<rect x="13" y="9" width="1" height="1" fill="#F2C21B" />
<rect x="14" y="9" width="1" height="1" fill="#D59F13" />
<rect x="1" y="10" width="1" height="1" fill="#F7A52A" />
<rect x="2" y="10" width="1" height="1" fill="#F7AE40" />
<rect x="3" y="10" width="1" height="1" fill="#F7B14A" />
<rect x="4" y="10" width="1" height="1" fill="#F7F7F7" />
<rect x="7" y="10" width="1" height="1" fill="#F7BF45" />
<rect x="8" y="10" width="1" height="1" fill="#F7C83E" />
<rect x="11" y="10" width="1" height="1" fill="#F7F7F7" />
<rect x="12" y="10" width="1" height="1" fill="#F7D517" />
<rect x="13" y="10" width="1" height="1" fill="#F2C712" />
<rect x="14" y="10" width="1" height="1" fill="#D6A00C" />
<rect x="1" y="11" width="1" height="1" fill="#F7A120" />
<rect x="2" y="11" width="1" height="1" fill="#F7AA35" />
<rect x="3" y="11" width="1" height="1" fill="#F7AF40" />
<rect x="4" y="11" width="1" height="1" fill="#F7DCB0" />
<rect x="5" y="11" width="1" height="1" fill="#F7F7F7" />
<rect x="6" y="11" width="1" height="1" fill="#F7B645" />
<rect x="7" y="11" width="1" height="1" fill="#F7BE41" />
<rect x="8" y="11" width="1" height="1" fill="#F7C83C" />
<rect x="9" y="11" width="1" height="1" fill="#F7D332" />
<rect x="10" y="11" width="1" height="1" fill="#F7F7F7" />
<rect x="11" y="11" width="1" height="1" fill="#F7EDA0" />
<rect x="12" y="11" width="1" height="1" fill="#F7D711" />
<rect x="13" y="11" width="1" height="1" fill="#F2C90A" />
<rect x="14" y="11" width="1" height="1" fill="#D69F07" />
<rect x="1" y="12" width="1" height="1" fill="#F69F18" />
<rect x="2" y="12" width="1" height="1" fill="#F7A52A" />
<rect x="3" y="12" width="1" height="1" fill="#F7AA35" />
<rect x="4" y="12" width="2" height="1" fill="#F7AE3A" />
<rect x="6" y="12" width="1" height="1" fill="#F7B239" />
<rect x="7" y="12" width="1" height="1" fill="#F7BA38" />
<rect x="8" y="12" width="1" height="1" fill="#F7C432" />
<rect x="9" y="12" width="1" height="1" fill="#F7CF2B" />
<rect x="10" y="12" width="1" height="1" fill="#F7D521" />
<rect x="11" y="12" width="1" height="1" fill="#F7D716" />
<rect x="12" y="12" width="1" height="1" fill="#F7D30C" />
<rect x="13" y="12" width="1" height="1" fill="#F2C404" />
<rect x="14" y="12" width="1" height="1" fill="#D59C02" />
<rect x="1" y="13" width="1" height="1" fill="#EB9310" />
<rect x="2" y="13" width="1" height="1" fill="#EF9B1D" />
<rect x="3" y="13" width="1" height="1" fill="#EF9F28" />
<rect x="4" y="13" width="1" height="1" fill="#EEA02C" />
<rect x="5" y="13" width="1" height="1" fill="#EEA22C" />
<rect x="6" y="13" width="1" height="1" fill="#F0A72B" />
<rect x="7" y="13" width="1" height="1" fill="#EFAE2A" />
<rect x="8" y="13" width="1" height="1" fill="#F1B726" />
<rect x="9" y="13" width="1" height="1" fill="#F2C01E" />
<rect x="10" y="13" width="1" height="1" fill="#F1C618" />
<rect x="11" y="13" width="1" height="1" fill="#F2C910" />
<rect x="12" y="13" width="1" height="1" fill="#F2C406" />
<rect x="13" y="13" width="1" height="1" fill="#EDB301" />
<rect x="14" y="13" width="1" height="1" fill="#CC8C00" />
<rect x="0" y="14" width="1" height="1" fill="#F0F0EB" />
<rect x="1" y="14" width="1" height="1" fill="#E8CC9F" />
<rect x="2" y="14" width="1" height="1" fill="#C97E0F" />
<rect x="3" y="14" width="1" height="1" fill="#CA8114" />
<rect x="4" y="14" width="2" height="1" fill="#CC8318" />
<rect x="6" y="14" width="1" height="1" fill="#CD8816" />
<rect x="7" y="14" width="1" height="1" fill="#CF9016" />
<rect x="8" y="14" width="1" height="1" fill="#D29413" />
<rect x="9" y="14" width="1" height="1" fill="#D69C0F" />
<rect x="10" y="14" width="1" height="1" fill="#D79F0C" />
<rect x="11" y="14" width="1" height="1" fill="#D69F07" />
<rect x="12" y="14" width="1" height="1" fill="#D59C02" />
<rect x="13" y="14" width="1" height="1" fill="#CC8C00" />
<rect x="14" y="14" width="1" height="1" fill="#E0C89A" />
<rect x="15" y="14" width="1" height="1" fill="#E1E1DD" />
<rect x="1" y="15" width="1" height="1" fill="#EBEBE5" />
<rect x="2" y="15" width="9" height="1" fill="#F7F7F7" />
<rect x="11" y="15" width="1" height="1" fill="#F6F6F6" />
<rect x="12" y="15" width="1" height="1" fill="#F5F5F5" />
<rect x="13" y="15" width="1" height="1" fill="#F4F4F4" />
<rect x="14" y="15" width="1" height="1" fill="#DFDFDC" />
</svg>