<?xml version="1.0" encoding="UTF-8" ?>
<svg version="1.1" width="16" height="16" xmlns="http://www.w3.org/2000/svg" shape-rendering="crispEdges">
<rect x="1" y="0" width="1" height="1" fill="#C8C0AC" />
<rect x="2" y="0" width="12" height="1" fill="#C1B8A2" />
<rect x="14" y="0" width="1" height="1" fill="#C8C0AC" />
<rect x="0" y="1" width="1" height="1" fill="#C8C0AC" />
<rect x="1" y="1" width="1" height="1" fill="#F1F0E5" />
<rect x="2" y="1" width="12" height="3" fill="#F7F7EF" />
<rect x="14" y="1" width="1" height="1" fill="#F1F0E5" />
<rect x="15" y="1" width="1" height="1" fill="#C8C0AC" />
<rect x="0" y="2" width="1" height="12" fill="#C1B8A2" />
<rect x="1" y="2" width="1" height="12" fill="#F7F7EF" />
<rect x="14" y="2" width="1" height="12" fill="#F7F7EF" />
<rect x="15" y="2" width="1" height="12" fill="#C1B8A2" />
<rect x="2" y="4" width="2" height="11" fill="#F7F7EF" />
<rect x="4" y="4" width="1" height="1" fill="#CEC5B4" />
<rect x="5" y="4" width="1" height="3" fill="#A59783" />
<rect x="6" y="4" width="4" height="1" fill="#F7F7EF" />
<rect x="10" y="4" width="1" height="3" fill="#A59783" />
<rect x="11" y="4" width="1" height="1" fill="#CEC5B4" />
<rect x="12" y="4" width="2" height="11" fill="#F7F7EF" />
<rect x="4" y="5" width="1" height="1" fill="#A59783" />
<rect x="6" y="5" width="1" height="2" fill="#A59783" />
<rect x="7" y="5" width="2" height="1" fill="#F7F7EF" />
<rect x="9" y="5" width="1" height="2" fill="#A59783" />
<rect x="11" y="5" width="1" height="1" fill="#A59783" />
<rect x="4" y="6" width="1" height="4" fill="#F7F7EF" />
<rect x="7" y="6" width="2" height="1" fill="#B5AB95" />
<rect x="11" y="6" width="1" height="4" fill="#F7F7EF" />
<rect x="5" y="7" width="1" height="2" fill="#F7F7EF" />
<rect x="6" y="7" width="1" height="2" fill="#B5AB95" />
<rect x="7" y="7" width="2" height="2" fill="#A59783" />
<rect x="9" y="7" width="1" height="2" fill="#B5AB95" />
<rect x="10" y="7" width="1" height="2" fill="#F7F7EF" />
<rect x="5" y="9" width="2" height="2" fill="#A59783" />
<rect x="7" y="9" width="2" height="1" fill="#B5AB95" />
<rect x="9" y="9" width="2" height="2" fill="#A59783" />
<rect x="4" y="10" width="1" height="1" fill="#A59783" />
<rect x="7" y="10" width="2" height="5" fill="#F7F7EF" />
<rect x="11" y="10" width="1" height="1" fill="#A59783" />
<rect x="4" y="11" width="1" height="1" fill="#CEC5B4" />
<rect x="5" y="11" width="1" height="1" fill="#A59783" />
<rect x="6" y="11" width="1" height="4" fill="#F7F7EF" />
<rect x="9" y="11" width="1" height="4" fill="#F7F7EF" />
<rect x="10" y="11" width="1" height="1" fill="#A59783" />
<rect x="11" y="11" width="1" height="1" fill="#CEC5B4" />
<rect x="4" y="12" width="2" height="3" fill="#F7F7EF" />
<rect x="10" y="12" width="2" height="3" fill="#F7F7EF" />
<rect x="0" y="14" width="1" height="1" fill="#C8C0AC" />
<rect x="1" y="14" width="1" height="1" fill="#F1F0E5" />
<rect x="14" y="14" width="1" height="1" fill="#F1F0E5" />
<rect x="15" y="14" width="1" height="1" fill="#C8C0AC" />
<rect x="1" y="15" width="1" height="1" fill="#C8C0AC" />
<rect x="2" y="15" width="12" height="1" fill="#C1B8A2" />
<rect x="14" y="15" width="1" height="1" fill="#C8C0AC" />
</svg>